<svg xmlns="http://www.w3.org/2000/svg" xmlns:xlink="http://www.w3.org/1999/xlink" width="500" zoomAndPan="magnify" viewBox="0 0 375 149.999998" height="200" preserveAspectRatio="xMidYMid meet" version="1.2"><defs><clipPath id="3b6142afca"><path d="M 85 43 L 105 43 L 105 70 L 85 70 Z M 85 43 "/></clipPath><clipPath id="203cc6a91f"><path d="M 90.734375 55.703125 C 92.402344 55.878906 93.972656 56.824219 94.875 58.386719 C 95.703125 59.820312 95.804688 61.480469 95.285156 62.929688 C 94.792969 64.238281 94.875 65.742188 95.625 67.042969 C 97.054688 69.519531 100.339844 70.253906 102.707031 68.507812 C 104.46875 67.207031 105.136719 64.796875 104.289062 62.777344 C 103.609375 61.144531 102.183594 60.117188 100.617188 59.851562 C 99.101562 59.574219 97.707031 58.660156 96.878906 57.21875 C 95.988281 55.6875 95.941406 53.898438 96.582031 52.386719 C 97.433594 50.65625 97.433594 48.554688 96.394531 46.761719 C 94.636719 43.707031 90.578125 42.800781 87.660156 44.953125 C 85.480469 46.558594 84.65625 49.539062 85.707031 52.035156 C 86.625 54.210938 88.609375 55.515625 90.730469 55.691406 Z M 90.734375 55.703125 "/></clipPath><clipPath id="d98cde41e8"><path d="M 107 82 L 128 82 L 128 108 L 107 108 Z M 107 82 "/></clipPath><clipPath id="1a82fa6fbb"><path d="M 121.695312 95.929688 C 120.066406 95.726562 118.542969 94.789062 117.65625 93.253906 C 116.824219 91.816406 116.726562 90.148438 117.25 88.699219 C 117.734375 87.398438 117.65625 85.894531 116.902344 84.59375 C 115.566406 82.277344 112.605469 81.488281 110.292969 82.824219 C 107.976562 84.160156 107.1875 87.121094 108.523438 89.433594 C 109.273438 90.738281 110.542969 91.558594 111.917969 91.789062 C 113.433594 92.066406 114.820312 92.980469 115.648438 94.414062 C 116.546875 95.980469 116.585938 97.808594 115.902344 99.34375 C 115.101562 101.050781 115.121094 103.113281 116.132812 104.875 C 117.78125 107.726562 121.433594 108.707031 124.289062 107.058594 C 127.144531 105.410156 128.125 101.757812 126.476562 98.902344 C 125.441406 97.109375 123.617188 96.058594 121.695312 95.933594 Z M 121.695312 95.929688 "/></clipPath><clipPath id="ea78d17378"><path d="M 66 50 L 93 50 L 93 71 L 66 71 Z M 66 50 "/></clipPath><clipPath id="680405da8c"><path d="M 68.914062 59.863281 C 70.21875 60.617188 71.722656 60.695312 73.027344 60.203125 C 74.476562 59.6875 76.136719 59.789062 77.570312 60.617188 C 79.136719 61.519531 80.078125 63.085938 80.257812 64.753906 C 80.433594 66.871094 81.738281 68.855469 83.914062 69.777344 C 86.414062 70.828125 89.390625 70.011719 90.996094 67.824219 C 93.148438 64.90625 92.242188 60.851562 89.1875 59.089844 C 87.394531 58.054688 85.292969 58.054688 83.5625 58.902344 C 82.050781 59.542969 80.261719 59.492188 78.726562 58.605469 C 77.289062 57.777344 76.375 56.382812 76.097656 54.867188 C 75.832031 53.300781 74.804688 51.875 73.167969 51.195312 C 71.152344 50.351562 68.746094 51.019531 67.441406 52.777344 C 65.695312 55.144531 66.429688 58.429688 68.90625 59.859375 Z M 68.914062 59.863281 "/></clipPath><clipPath id="0bd4a4ded7"><path d="M 120 81 L 147 81 L 147 101 L 120 101 Z M 120 81 "/></clipPath><clipPath id="09c367ef9c"><path d="M 143.695312 91.863281 C 142.394531 91.113281 140.890625 91.03125 139.589844 91.519531 C 138.136719 92.042969 136.472656 91.941406 135.035156 91.113281 C 133.5 90.222656 132.5625 88.707031 132.363281 87.070312 C 132.234375 85.152344 131.179688 83.328125 129.390625 82.292969 C 126.535156 80.644531 122.882812 81.617188 121.234375 84.476562 C 119.585938 87.332031 120.5625 90.984375 123.421875 92.632812 C 125.183594 93.652344 127.242188 93.667969 128.953125 92.863281 C 130.484375 92.179688 132.316406 92.21875 133.878906 93.121094 C 135.3125 93.953125 136.230469 95.335938 136.503906 96.847656 C 136.734375 98.226562 137.554688 99.492188 138.859375 100.246094 C 141.175781 101.582031 144.132812 100.785156 145.46875 98.472656 C 146.804688 96.15625 146.011719 93.199219 143.699219 91.863281 Z M 143.695312 91.863281 "/></clipPath><clipPath id="44cf3a3857"><path d="M 120 50 L 147 50 L 147 71 L 120 71 Z M 120 50 "/></clipPath><clipPath id="bf1d650ab7"><path d="M 122.769531 59.519531 C 120.609375 61.15625 119.832031 64.144531 120.917969 66.628906 C 122.371094 69.953125 126.332031 71.195312 129.386719 69.429688 C 131.179688 68.398438 132.230469 66.570312 132.355469 64.652344 C 132.558594 63.023438 133.496094 61.5 135.027344 60.613281 C 136.46875 59.78125 138.136719 59.683594 139.582031 60.203125 C 141.074219 60.757812 142.816406 60.578125 144.226562 59.503906 C 145.964844 58.175781 146.589844 55.757812 145.71875 53.753906 C 144.539062 51.054688 141.328125 50.050781 138.851562 51.480469 C 137.546875 52.230469 136.726562 53.496094 136.496094 54.871094 C 136.21875 56.382812 135.304688 57.769531 133.871094 58.597656 C 132.304688 59.5 130.472656 59.535156 128.941406 58.855469 C 127.015625 57.949219 124.648438 58.085938 122.765625 59.511719 Z M 122.769531 59.519531 "/></clipPath><clipPath id="9d94443893"><path d="M 66 81 L 93 81 L 93 101 L 66 101 Z M 66 81 "/></clipPath><clipPath id="2968fb4ee0"><path d="M 89.199219 92.640625 C 92.050781 90.988281 93.03125 87.335938 91.382812 84.484375 C 89.734375 81.628906 86.082031 80.648438 83.226562 82.296875 C 81.464844 83.316406 80.417969 85.089844 80.261719 86.972656 C 80.082031 88.640625 79.140625 90.210938 77.574219 91.113281 C 76.140625 91.941406 74.480469 92.042969 73.035156 91.523438 C 71.726562 91.035156 70.222656 91.113281 68.917969 91.863281 C 66.601562 93.199219 65.8125 96.160156 67.148438 98.472656 C 68.484375 100.789062 71.445312 101.582031 73.757812 100.246094 C 75.058594 99.492188 75.878906 98.230469 76.113281 96.855469 C 76.386719 95.339844 77.304688 93.945312 78.742188 93.117188 C 80.273438 92.226562 82.0625 92.179688 83.578125 92.820312 C 85.304688 93.671875 87.40625 93.671875 89.203125 92.632812 Z M 89.199219 92.640625 "/></clipPath><clipPath id="199267e90a"><path d="M 100 30 L 113 30 L 113 59 L 100 59 Z M 100 30 "/></clipPath><clipPath id="47713cac8a"><path d="M 100.378906 53.429688 C 100.71875 56.121094 102.917969 58.289062 105.613281 58.589844 C 109.21875 58.996094 112.273438 56.183594 112.273438 52.65625 C 112.273438 50.585938 111.222656 48.765625 109.621094 47.691406 C 108.308594 46.699219 107.457031 45.125 107.457031 43.355469 C 107.457031 41.691406 108.207031 40.203125 109.382812 39.207031 C 110.605469 38.191406 111.320312 36.589844 111.097656 34.835938 C 110.816406 32.667969 109.035156 30.914062 106.859375 30.667969 C 103.9375 30.335938 101.457031 32.617188 101.457031 35.472656 C 101.457031 36.976562 102.140625 38.324219 103.214844 39.210938 C 104.390625 40.207031 105.132812 41.691406 105.132812 43.351562 C 105.132812 45.15625 104.25 46.761719 102.890625 47.746094 C 101.140625 48.960938 100.078125 51.082031 100.371094 53.425781 Z M 100.378906 53.429688 "/></clipPath><clipPath id="d1e7a4df31"><path d="M 100 93 L 113 93 L 113 122 L 100 122 Z M 100 93 "/></clipPath><clipPath id="4dd13d31c9"><path d="M 109.625 104.03125 C 111.222656 102.964844 112.277344 101.136719 112.277344 99.066406 C 112.277344 95.769531 109.605469 93.097656 106.308594 93.097656 C 103.011719 93.097656 100.339844 95.769531 100.339844 99.066406 C 100.339844 101.097656 101.351562 102.894531 102.902344 103.972656 C 104.261719 104.957031 105.144531 106.558594 105.144531 108.367188 C 105.144531 110.027344 104.402344 111.511719 103.230469 112.507812 C 102.15625 113.394531 101.46875 114.738281 101.46875 116.242188 C 101.46875 118.917969 103.636719 121.082031 106.308594 121.082031 C 108.980469 121.082031 111.148438 118.917969 111.148438 116.242188 C 111.148438 114.746094 110.464844 113.402344 109.390625 112.515625 C 108.214844 111.519531 107.46875 110.03125 107.46875 108.367188 C 107.46875 106.597656 108.316406 105.023438 109.628906 104.03125 Z M 109.625 104.03125 "/></clipPath><clipPath id="3a6df45feb"><path d="M 107 43 L 128 43 L 128 70 L 107 70 Z M 107 43 "/></clipPath><clipPath id="f97449f60a"><path d="M 111.910156 59.855469 C 110.34375 60.121094 108.921875 61.148438 108.238281 62.785156 C 107.398438 64.800781 108.066406 67.207031 109.820312 68.511719 C 112.191406 70.257812 115.472656 69.523438 116.902344 67.046875 C 117.65625 65.746094 117.734375 64.242188 117.246094 62.933594 C 116.726562 61.484375 116.828125 59.828125 117.65625 58.390625 C 118.558594 56.828125 120.128906 55.882812 121.792969 55.707031 C 123.910156 55.527344 125.894531 54.226562 126.816406 52.046875 C 127.867188 49.550781 127.050781 46.574219 124.863281 44.964844 C 121.945312 42.8125 117.890625 43.71875 116.128906 46.773438 C 115.097656 48.566406 115.097656 50.671875 115.941406 52.398438 C 116.582031 53.914062 116.53125 55.703125 115.648438 57.234375 C 114.816406 58.671875 113.421875 59.589844 111.90625 59.863281 Z M 111.910156 59.855469 "/></clipPath><clipPath id="800d76520d"><path d="M 85 82 L 105 82 L 105 108 L 85 108 Z M 85 82 "/></clipPath><clipPath id="6ae586e763"><path d="M 100.617188 91.785156 C 101.996094 91.554688 103.261719 90.734375 104.015625 89.429688 C 105.351562 87.113281 104.558594 84.15625 102.246094 82.820312 C 99.933594 81.484375 96.96875 82.277344 95.632812 84.589844 C 94.882812 85.890625 94.804688 87.394531 95.289062 88.695312 C 95.8125 90.148438 95.714844 91.8125 94.882812 93.25 C 93.996094 94.785156 92.476562 95.722656 90.839844 95.921875 C 88.921875 96.050781 87.101562 97.105469 86.0625 98.894531 C 84.414062 101.75 85.390625 105.402344 88.25 107.050781 C 91.101562 108.699219 94.757812 107.71875 96.40625 104.863281 C 97.421875 103.101562 97.4375 101.042969 96.632812 99.332031 C 95.953125 97.800781 95.988281 95.96875 96.890625 94.40625 C 97.722656 92.972656 99.105469 92.054688 100.617188 91.78125 Z M 100.617188 91.785156 "/></clipPath><clipPath id="be300170e0"><path d="M 70 69 L 99 69 L 99 82 L 70 82 Z M 70 69 "/></clipPath><clipPath id="65565915ae"><path d="M 93.996094 71.011719 C 92.238281 70.785156 90.636719 71.5 89.621094 72.722656 C 88.628906 73.902344 87.136719 74.648438 85.472656 74.648438 C 83.703125 74.648438 82.128906 73.800781 81.140625 72.484375 C 80.070312 70.886719 78.242188 69.832031 76.171875 69.832031 C 72.644531 69.832031 69.835938 72.886719 70.242188 76.496094 C 70.542969 79.191406 72.710938 81.390625 75.398438 81.726562 C 77.742188 82.019531 79.863281 80.957031 81.078125 79.207031 C 82.0625 77.847656 83.667969 76.964844 85.472656 76.964844 C 87.132812 76.964844 88.617188 77.710938 89.613281 78.882812 C 90.5 79.957031 91.847656 80.644531 93.351562 80.644531 C 96.210938 80.644531 98.488281 78.167969 98.15625 75.238281 C 97.910156 73.066406 96.164062 71.28125 93.988281 71 Z M 93.996094 71.011719 "/></clipPath><clipPath id="68c0a6ea5e"><path d="M 114 69 L 143 69 L 143 82 L 114 82 Z M 114 69 "/></clipPath><clipPath id="01e33b4a41"><path d="M 127.058594 76.996094 C 128.867188 76.996094 130.46875 77.878906 131.457031 79.238281 C 132.535156 80.789062 134.328125 81.800781 136.359375 81.800781 C 139.660156 81.800781 142.332031 79.128906 142.332031 75.832031 C 142.332031 72.53125 139.660156 69.859375 136.359375 69.859375 C 134.292969 69.859375 132.46875 70.910156 131.394531 72.515625 C 130.40625 73.828125 128.828125 74.675781 127.058594 74.675781 C 125.398438 74.675781 123.90625 73.929688 122.910156 72.753906 C 122.023438 71.683594 120.683594 70.996094 119.183594 70.996094 C 116.511719 70.996094 114.34375 73.164062 114.34375 75.835938 C 114.34375 78.507812 116.511719 80.675781 119.183594 80.675781 C 120.6875 80.675781 122.03125 79.988281 122.921875 78.914062 C 123.914062 77.742188 125.402344 77 127.058594 77 Z M 127.058594 76.996094 "/></clipPath></defs><g id="1473ba8341"><path style=" stroke:none;fill-rule:nonzero;fill:#ffffff;fill-opacity:1;" d="M 90.734375 55.703125 C 92.402344 55.878906 93.972656 56.824219 94.875 58.386719 C 95.703125 59.820312 95.804688 61.480469 95.285156 62.929688 C 94.792969 64.238281 94.875 65.742188 95.625 67.042969 C 97.054688 69.519531 100.339844 70.253906 102.707031 68.507812 C 104.46875 67.207031 105.136719 64.796875 104.289062 62.777344 C 103.609375 61.144531 102.183594 60.117188 100.617188 59.851562 C 99.101562 59.574219 97.707031 58.660156 96.878906 57.21875 C 95.988281 55.6875 95.941406 53.898438 96.582031 52.386719 C 97.433594 50.65625 97.433594 48.554688 96.394531 46.761719 C 94.636719 43.707031 90.578125 42.800781 87.660156 44.953125 C 85.480469 46.558594 84.65625 49.539062 85.707031 52.035156 C 86.625 54.210938 88.609375 55.515625 90.730469 55.691406 Z M 90.734375 55.703125 "/><path style=" stroke:none;fill-rule:nonzero;fill:#ffffff;fill-opacity:1;" d="M 121.695312 95.929688 C 120.066406 95.726562 118.542969 94.789062 117.65625 93.253906 C 116.824219 91.816406 116.726562 90.148438 117.25 88.699219 C 117.734375 87.398438 117.65625 85.894531 116.902344 84.59375 C 115.566406 82.277344 112.605469 81.488281 110.292969 82.824219 C 107.976562 84.160156 107.1875 87.121094 108.523438 89.433594 C 109.273438 90.738281 110.542969 91.558594 111.917969 91.789062 C 113.433594 92.066406 114.820312 92.980469 115.648438 94.414062 C 116.546875 95.980469 116.585938 97.808594 115.902344 99.34375 C 115.101562 101.050781 115.121094 103.113281 116.132812 104.875 C 117.78125 107.726562 121.433594 108.707031 124.289062 107.058594 C 127.144531 105.410156 128.125 101.757812 126.476562 98.902344 C 125.441406 97.109375 123.617188 96.058594 121.695312 95.933594 Z M 121.695312 95.929688 "/><path style=" stroke:none;fill-rule:nonzero;fill:#ffffff;fill-opacity:1;" d="M 68.914062 59.863281 C 70.21875 60.617188 71.722656 60.695312 73.027344 60.203125 C 74.476562 59.6875 76.136719 59.789062 77.570312 60.617188 C 79.136719 61.519531 80.078125 63.085938 80.257812 64.753906 C 80.433594 66.871094 81.738281 68.855469 83.914062 69.777344 C 86.414062 70.828125 89.390625 70.011719 90.996094 67.824219 C 93.148438 64.90625 92.242188 60.851562 89.1875 59.089844 C 87.394531 58.054688 85.292969 58.054688 83.5625 58.902344 C 82.050781 59.542969 80.261719 59.492188 78.726562 58.605469 C 77.289062 57.777344 76.375 56.382812 76.097656 54.867188 C 75.832031 53.300781 74.804688 51.875 73.167969 51.195312 C 71.152344 50.351562 68.746094 51.019531 67.441406 52.777344 C 65.695312 55.144531 66.429688 58.429688 68.90625 59.859375 Z M 68.914062 59.863281 "/><path style=" stroke:none;fill-rule:nonzero;fill:#ffffff;fill-opacity:1;" d="M 143.695312 91.863281 C 142.394531 91.113281 140.890625 91.03125 139.589844 91.519531 C 138.136719 92.042969 136.472656 91.941406 135.035156 91.113281 C 133.5 90.222656 132.5625 88.707031 132.363281 87.070312 C 132.234375 85.152344 131.179688 83.328125 129.390625 82.292969 C 126.535156 80.644531 122.882812 81.617188 121.234375 84.476562 C 119.585938 87.332031 120.5625 90.984375 123.421875 92.632812 C 125.183594 93.652344 127.242188 93.667969 128.953125 92.863281 C 130.484375 92.179688 132.316406 92.21875 133.878906 93.121094 C 135.3125 93.953125 136.230469 95.335938 136.503906 96.847656 C 136.734375 98.226562 137.554688 99.492188 138.859375 100.246094 C 141.175781 101.582031 144.132812 100.785156 145.46875 98.472656 C 146.804688 96.15625 146.011719 93.199219 143.699219 91.863281 Z M 143.695312 91.863281 "/><path style=" stroke:none;fill-rule:nonzero;fill:#ffffff;fill-opacity:1;" d="M 122.769531 59.519531 C 120.609375 61.15625 119.832031 64.144531 120.917969 66.628906 C 122.371094 69.953125 126.332031 71.195312 129.386719 69.429688 C 131.179688 68.398438 132.230469 66.570312 132.355469 64.652344 C 132.558594 63.023438 133.496094 61.5 135.027344 60.613281 C 136.46875 59.78125 138.136719 59.683594 139.582031 60.203125 C 141.074219 60.757812 142.816406 60.578125 144.226562 59.503906 C 145.964844 58.175781 146.589844 55.757812 145.71875 53.753906 C 144.539062 51.054688 141.328125 50.050781 138.851562 51.480469 C 137.546875 52.230469 136.726562 53.496094 136.496094 54.871094 C 136.21875 56.382812 135.304688 57.769531 133.871094 58.597656 C 132.304688 59.5 130.472656 59.535156 128.941406 58.855469 C 127.015625 57.949219 124.648438 58.085938 122.765625 59.511719 Z M 122.769531 59.519531 "/><path style=" stroke:none;fill-rule:nonzero;fill:#ffffff;fill-opacity:1;" d="M 89.199219 92.640625 C 92.050781 90.988281 93.03125 87.335938 91.382812 84.484375 C 89.734375 81.628906 86.082031 80.648438 83.226562 82.296875 C 81.464844 83.316406 80.417969 85.089844 80.261719 86.972656 C 80.082031 88.640625 79.140625 90.210938 77.574219 91.113281 C 76.140625 91.941406 74.480469 92.042969 73.035156 91.523438 C 71.726562 91.035156 70.222656 91.113281 68.917969 91.863281 C 66.601562 93.199219 65.8125 96.160156 67.148438 98.472656 C 68.484375 100.789062 71.445312 101.582031 73.757812 100.246094 C 75.058594 99.492188 75.878906 98.230469 76.113281 96.855469 C 76.386719 95.339844 77.304688 93.945312 78.742188 93.117188 C 80.273438 92.226562 82.0625 92.179688 83.578125 92.820312 C 85.304688 93.671875 87.40625 93.671875 89.203125 92.632812 Z M 89.199219 92.640625 "/><path style=" stroke:none;fill-rule:nonzero;fill:#ffffff;fill-opacity:1;" d="M 100.378906 53.429688 C 100.71875 56.121094 102.917969 58.289062 105.613281 58.589844 C 109.21875 58.996094 112.273438 56.183594 112.273438 52.65625 C 112.273438 50.585938 111.222656 48.765625 109.621094 47.691406 C 108.308594 46.699219 107.457031 45.125 107.457031 43.355469 C 107.457031 41.691406 108.207031 40.203125 109.382812 39.207031 C 110.605469 38.191406 111.320312 36.589844 111.097656 34.835938 C 110.816406 32.667969 109.035156 30.914062 106.859375 30.667969 C 103.9375 30.335938 101.457031 32.617188 101.457031 35.472656 C 101.457031 36.976562 102.140625 38.324219 103.214844 39.210938 C 104.390625 40.207031 105.132812 41.691406 105.132812 43.351562 C 105.132812 45.15625 104.25 46.761719 102.890625 47.746094 C 101.140625 48.960938 100.078125 51.082031 100.371094 53.425781 Z M 100.378906 53.429688 "/><path style=" stroke:none;fill-rule:nonzero;fill:#ffffff;fill-opacity:1;" d="M 109.625 104.03125 C 111.222656 102.964844 112.277344 101.136719 112.277344 99.066406 C 112.277344 95.769531 109.605469 93.097656 106.308594 93.097656 C 103.011719 93.097656 100.339844 95.769531 100.339844 99.066406 C 100.339844 101.097656 101.351562 102.894531 102.902344 103.972656 C 104.261719 104.957031 105.144531 106.558594 105.144531 108.367188 C 105.144531 110.027344 104.402344 111.511719 103.230469 112.507812 C 102.15625 113.394531 101.46875 114.738281 101.46875 116.242188 C 101.46875 118.917969 103.636719 121.082031 106.308594 121.082031 C 108.980469 121.082031 111.148438 118.917969 111.148438 116.242188 C 111.148438 114.746094 110.464844 113.402344 109.390625 112.515625 C 108.214844 111.519531 107.46875 110.03125 107.46875 108.367188 C 107.46875 106.597656 108.316406 105.023438 109.628906 104.03125 Z M 109.625 104.03125 "/><path style=" stroke:none;fill-rule:nonzero;fill:#ffffff;fill-opacity:1;" d="M 111.910156 59.855469 C 110.34375 60.121094 108.921875 61.148438 108.238281 62.785156 C 107.398438 64.800781 108.066406 67.207031 109.820312 68.511719 C 112.191406 70.257812 115.472656 69.523438 116.902344 67.046875 C 117.65625 65.746094 117.734375 64.242188 117.246094 62.933594 C 116.726562 61.484375 116.828125 59.828125 117.65625 58.390625 C 118.558594 56.828125 120.128906 55.882812 121.792969 55.707031 C 123.910156 55.527344 125.894531 54.226562 126.816406 52.046875 C 127.867188 49.550781 127.050781 46.574219 124.863281 44.964844 C 121.945312 42.8125 117.890625 43.71875 116.128906 46.773438 C 115.097656 48.566406 115.097656 50.671875 115.941406 52.398438 C 116.582031 53.914062 116.53125 55.703125 115.648438 57.234375 C 114.816406 58.671875 113.421875 59.589844 111.90625 59.863281 Z M 111.910156 59.855469 "/><path style=" stroke:none;fill-rule:nonzero;fill:#ffffff;fill-opacity:1;" d="M 100.617188 91.785156 C 101.996094 91.554688 103.261719 90.734375 104.015625 89.429688 C 105.351562 87.113281 104.558594 84.15625 102.246094 82.820312 C 99.933594 81.484375 96.96875 82.277344 95.632812 84.589844 C 94.882812 85.890625 94.804688 87.394531 95.289062 88.695312 C 95.8125 90.148438 95.714844 91.8125 94.882812 93.25 C 93.996094 94.785156 92.476562 95.722656 90.839844 95.921875 C 88.921875 96.050781 87.101562 97.105469 86.0625 98.894531 C 84.414062 101.75 85.390625 105.402344 88.25 107.050781 C 91.101562 108.699219 94.757812 107.71875 96.40625 104.863281 C 97.421875 103.101562 97.4375 101.042969 96.632812 99.332031 C 95.953125 97.800781 95.988281 95.96875 96.890625 94.40625 C 97.722656 92.972656 99.105469 92.054688 100.617188 91.78125 Z M 100.617188 91.785156 "/><path style=" stroke:none;fill-rule:nonzero;fill:#ffffff;fill-opacity:1;" d="M 93.996094 71.011719 C 92.238281 70.785156 90.636719 71.5 89.621094 72.722656 C 88.628906 73.902344 87.136719 74.648438 85.472656 74.648438 C 83.703125 74.648438 82.128906 73.800781 81.140625 72.484375 C 80.070312 70.886719 78.242188 69.832031 76.171875 69.832031 C 72.644531 69.832031 69.835938 72.886719 70.242188 76.496094 C 70.542969 79.191406 72.710938 81.390625 75.398438 81.726562 C 77.742188 82.019531 79.863281 80.957031 81.078125 79.207031 C 82.0625 77.847656 83.667969 76.964844 85.472656 76.964844 C 87.132812 76.964844 88.617188 77.710938 89.613281 78.882812 C 90.5 79.957031 91.847656 80.644531 93.351562 80.644531 C 96.210938 80.644531 98.488281 78.167969 98.15625 75.238281 C 97.910156 73.066406 96.164062 71.28125 93.988281 71 Z M 93.996094 71.011719 "/><path style=" stroke:none;fill-rule:nonzero;fill:#ffffff;fill-opacity:1;" d="M 127.058594 76.996094 C 128.867188 76.996094 130.46875 77.878906 131.457031 79.238281 C 132.535156 80.789062 134.328125 81.800781 136.359375 81.800781 C 139.660156 81.800781 142.332031 79.128906 142.332031 75.832031 C 142.332031 72.53125 139.660156 69.859375 136.359375 69.859375 C 134.292969 69.859375 132.46875 70.910156 131.394531 72.515625 C 130.40625 73.828125 128.828125 74.675781 127.058594 74.675781 C 125.398438 74.675781 123.90625 73.929688 122.910156 72.753906 C 122.023438 71.683594 120.683594 70.996094 119.183594 70.996094 C 116.511719 70.996094 114.34375 73.164062 114.34375 75.835938 C 114.34375 78.507812 116.511719 80.675781 119.183594 80.675781 C 120.6875 80.675781 122.03125 79.988281 122.921875 78.914062 C 123.914062 77.742188 125.402344 77 127.058594 77 Z M 127.058594 76.996094 "/><g clip-rule="nonzero" clip-path="url(#3b6142afca)"><g clip-rule="nonzero" clip-path="url(#203cc6a91f)"><path style=" stroke:none;fill-rule:nonzero;fill:#ffffff;fill-opacity:1;" d="M 84.65625 42.800781 L 84.65625 70.253906 L 105.136719 70.253906 L 105.136719 42.800781 Z M 84.65625 42.800781 "/></g></g><g clip-rule="nonzero" clip-path="url(#d98cde41e8)"><g clip-rule="nonzero" clip-path="url(#1a82fa6fbb)"><path style=" stroke:none;fill-rule:nonzero;fill:#ffffff;fill-opacity:1;" d="M 107.1875 81.488281 L 107.1875 108.707031 L 128.125 108.707031 L 128.125 81.488281 Z M 107.1875 81.488281 "/></g></g><g clip-rule="nonzero" clip-path="url(#ea78d17378)"><g clip-rule="nonzero" clip-path="url(#680405da8c)"><path style=" stroke:none;fill-rule:nonzero;fill:#ffffff;fill-opacity:1;" d="M 65.695312 50.351562 L 65.695312 70.828125 L 93.148438 70.828125 L 93.148438 50.351562 Z M 65.695312 50.351562 "/></g></g><g clip-rule="nonzero" clip-path="url(#0bd4a4ded7)"><g clip-rule="nonzero" clip-path="url(#09c367ef9c)"><path style=" stroke:none;fill-rule:nonzero;fill:#ffffff;fill-opacity:1;" d="M 119.585938 80.644531 L 119.585938 101.582031 L 146.804688 101.582031 L 146.804688 80.644531 Z M 119.585938 80.644531 "/></g></g><g clip-rule="nonzero" clip-path="url(#44cf3a3857)"><g clip-rule="nonzero" clip-path="url(#bf1d650ab7)"><path style=" stroke:none;fill-rule:nonzero;fill:#ffffff;fill-opacity:1;" d="M 119.832031 50.050781 L 119.832031 71.195312 L 146.589844 71.195312 L 146.589844 50.050781 Z M 119.832031 50.050781 "/></g></g><g clip-rule="nonzero" clip-path="url(#9d94443893)"><g clip-rule="nonzero" clip-path="url(#2968fb4ee0)"><path style=" stroke:none;fill-rule:nonzero;fill:#ffffff;fill-opacity:1;" d="M 65.8125 80.648438 L 65.8125 101.582031 L 93.03125 101.582031 L 93.03125 80.648438 Z M 65.8125 80.648438 "/></g></g><g clip-rule="nonzero" clip-path="url(#199267e90a)"><g clip-rule="nonzero" clip-path="url(#47713cac8a)"><path style=" stroke:none;fill-rule:nonzero;fill:#ffffff;fill-opacity:1;" d="M 100.078125 30.335938 L 100.078125 58.996094 L 112.273438 58.996094 L 112.273438 30.335938 Z M 100.078125 30.335938 "/></g></g><g clip-rule="nonzero" clip-path="url(#d1e7a4df31)"><g clip-rule="nonzero" clip-path="url(#4dd13d31c9)"><path style=" stroke:none;fill-rule:nonzero;fill:#ffffff;fill-opacity:1;" d="M 100.339844 93.097656 L 100.339844 121.082031 L 112.277344 121.082031 L 112.277344 93.097656 Z M 100.339844 93.097656 "/></g></g><g clip-rule="nonzero" clip-path="url(#3a6df45feb)"><g clip-rule="nonzero" clip-path="url(#f97449f60a)"><path style=" stroke:none;fill-rule:nonzero;fill:#ffffff;fill-opacity:1;" d="M 107.398438 42.8125 L 107.398438 70.257812 L 127.867188 70.257812 L 127.867188 42.8125 Z M 107.398438 42.8125 "/></g></g><g clip-rule="nonzero" clip-path="url(#800d76520d)"><g clip-rule="nonzero" clip-path="url(#6ae586e763)"><path style=" stroke:none;fill-rule:nonzero;fill:#ffffff;fill-opacity:1;" d="M 84.414062 81.484375 L 84.414062 108.699219 L 105.351562 108.699219 L 105.351562 81.484375 Z M 84.414062 81.484375 "/></g></g><g clip-rule="nonzero" clip-path="url(#be300170e0)"><g clip-rule="nonzero" clip-path="url(#65565915ae)"><path style=" stroke:none;fill-rule:nonzero;fill:#ffffff;fill-opacity:1;" d="M 69.835938 69.832031 L 69.835938 82.019531 L 98.488281 82.019531 L 98.488281 69.832031 Z M 69.835938 69.832031 "/></g></g><g clip-rule="nonzero" clip-path="url(#68c0a6ea5e)"><g clip-rule="nonzero" clip-path="url(#01e33b4a41)"><path style=" stroke:none;fill-rule:nonzero;fill:#ffffff;fill-opacity:1;" d="M 114.34375 69.859375 L 114.34375 81.800781 L 142.332031 81.800781 L 142.332031 69.859375 Z M 114.34375 69.859375 "/></g></g><g style="fill:#ffffff;fill-opacity:1;"><g transform="translate(153.14533, 89.820871)"><path style="stroke:none" d="M 32.65625 -23.421875 C 35.539062 -23.421875 37.832031 -22.570312 39.53125 -20.875 C 41.238281 -19.175781 42.09375 -16.625 42.09375 -13.21875 L 42.09375 0 L 35.390625 0 L 35.390625 -12.1875 C 35.390625 -14.019531 35.007812 -15.382812 34.25 -16.28125 C 33.5 -17.1875 32.421875 -17.640625 31.015625 -17.640625 C 29.441406 -17.640625 28.195312 -17.128906 27.28125 -16.109375 C 26.375 -15.097656 25.921875 -13.585938 25.921875 -11.578125 L 25.921875 0 L 19.21875 0 L 19.21875 -12.1875 C 19.21875 -15.820312 17.757812 -17.640625 14.84375 -17.640625 C 13.300781 -17.640625 12.070312 -17.128906 11.15625 -16.109375 C 10.238281 -15.097656 9.78125 -13.585938 9.78125 -11.578125 L 9.78125 0 L 3.09375 0 L 3.09375 -23.078125 L 9.484375 -23.078125 L 9.484375 -20.421875 C 10.335938 -21.390625 11.382812 -22.128906 12.625 -22.640625 C 13.875 -23.160156 15.242188 -23.421875 16.734375 -23.421875 C 18.359375 -23.421875 19.828125 -23.097656 21.140625 -22.453125 C 22.460938 -21.816406 23.523438 -20.882812 24.328125 -19.65625 C 25.273438 -20.851562 26.46875 -21.78125 27.90625 -22.4375 C 29.351562 -23.09375 30.9375 -23.421875 32.65625 -23.421875 Z M 32.65625 -23.421875 "/></g></g><g style="fill:#ffffff;fill-opacity:1;"><g transform="translate(198.408496, 89.820871)"><path style="stroke:none" d="M 25.703125 -11.453125 C 25.703125 -11.367188 25.660156 -10.769531 25.578125 -9.65625 L 8.109375 -9.65625 C 8.421875 -8.226562 9.160156 -7.097656 10.328125 -6.265625 C 11.503906 -5.429688 12.96875 -5.015625 14.71875 -5.015625 C 15.914062 -5.015625 16.976562 -5.191406 17.90625 -5.546875 C 18.84375 -5.910156 19.710938 -6.476562 20.515625 -7.25 L 24.078125 -3.390625 C 21.898438 -0.898438 18.722656 0.34375 14.546875 0.34375 C 11.941406 0.34375 9.640625 -0.160156 7.640625 -1.171875 C 5.640625 -2.191406 4.09375 -3.601562 3 -5.40625 C 1.914062 -7.207031 1.375 -9.253906 1.375 -11.546875 C 1.375 -13.804688 1.910156 -15.84375 2.984375 -17.65625 C 4.054688 -19.46875 5.53125 -20.878906 7.40625 -21.890625 C 9.28125 -22.910156 11.375 -23.421875 13.6875 -23.421875 C 15.945312 -23.421875 17.988281 -22.9375 19.8125 -21.96875 C 21.644531 -21 23.082031 -19.601562 24.125 -17.78125 C 25.175781 -15.96875 25.703125 -13.859375 25.703125 -11.453125 Z M 13.734375 -18.359375 C 12.210938 -18.359375 10.9375 -17.929688 9.90625 -17.078125 C 8.875 -16.222656 8.25 -15.050781 8.03125 -13.5625 L 19.390625 -13.5625 C 19.160156 -15.019531 18.53125 -16.179688 17.5 -17.046875 C 16.476562 -17.921875 15.222656 -18.359375 13.734375 -18.359375 Z M 13.734375 -18.359375 "/></g></g><g style="fill:#ffffff;fill-opacity:1;"><g transform="translate(225.480564, 89.820871)"><path style="stroke:none" d="M 26.609375 -31.84375 L 26.609375 0 L 20.203125 0 L 20.203125 -2.65625 C 18.546875 -0.65625 16.144531 0.34375 13 0.34375 C 10.820312 0.34375 8.851562 -0.140625 7.09375 -1.109375 C 5.34375 -2.085938 3.960938 -3.476562 2.953125 -5.28125 C 1.953125 -7.082031 1.453125 -9.171875 1.453125 -11.546875 C 1.453125 -13.921875 1.953125 -16.007812 2.953125 -17.8125 C 3.960938 -19.613281 5.34375 -21 7.09375 -21.96875 C 8.851562 -22.9375 10.820312 -23.421875 13 -23.421875 C 15.945312 -23.421875 18.25 -22.492188 19.90625 -20.640625 L 19.90625 -31.84375 Z M 14.15625 -5.15625 C 15.84375 -5.15625 17.242188 -5.734375 18.359375 -6.890625 C 19.472656 -8.046875 20.03125 -9.597656 20.03125 -11.546875 C 20.03125 -13.484375 19.472656 -15.03125 18.359375 -16.1875 C 17.242188 -17.351562 15.84375 -17.9375 14.15625 -17.9375 C 12.4375 -17.9375 11.019531 -17.351562 9.90625 -16.1875 C 8.789062 -15.03125 8.234375 -13.484375 8.234375 -11.546875 C 8.234375 -9.597656 8.789062 -8.046875 9.90625 -6.890625 C 11.019531 -5.734375 12.4375 -5.15625 14.15625 -5.15625 Z M 14.15625 -5.15625 "/></g></g><g style="fill:#ffffff;fill-opacity:1;"><g transform="translate(255.169743, 89.820871)"><path style="stroke:none" d="M 3.09375 -23.078125 L 9.78125 -23.078125 L 9.78125 0 L 3.09375 0 Z M 6.4375 -26.296875 C 5.207031 -26.296875 4.207031 -26.65625 3.4375 -27.375 C 2.664062 -28.09375 2.28125 -28.976562 2.28125 -30.03125 C 2.28125 -31.09375 2.664062 -31.976562 3.4375 -32.6875 C 4.207031 -33.40625 5.207031 -33.765625 6.4375 -33.765625 C 7.664062 -33.765625 8.664062 -33.421875 9.4375 -32.734375 C 10.21875 -32.046875 10.609375 -31.1875 10.609375 -30.15625 C 10.609375 -29.039062 10.21875 -28.117188 9.4375 -27.390625 C 8.664062 -26.660156 7.664062 -26.296875 6.4375 -26.296875 Z M 6.4375 -26.296875 "/></g></g><g style="fill:#ffffff;fill-opacity:1;"><g transform="translate(268.08368, 89.820871)"><path style="stroke:none" d="M 14.25 0.34375 C 11.789062 0.34375 9.578125 -0.160156 7.609375 -1.171875 C 5.648438 -2.191406 4.117188 -3.601562 3.015625 -5.40625 C 1.921875 -7.207031 1.375 -9.253906 1.375 -11.546875 C 1.375 -13.828125 1.921875 -15.867188 3.015625 -17.671875 C 4.117188 -19.472656 5.648438 -20.878906 7.609375 -21.890625 C 9.578125 -22.910156 11.789062 -23.421875 14.25 -23.421875 C 16.675781 -23.421875 18.796875 -22.910156 20.609375 -21.890625 C 22.429688 -20.878906 23.753906 -19.429688 24.578125 -17.546875 L 19.390625 -14.765625 C 18.191406 -16.878906 16.460938 -17.9375 14.203125 -17.9375 C 12.453125 -17.9375 11.003906 -17.363281 9.859375 -16.21875 C 8.722656 -15.070312 8.15625 -13.515625 8.15625 -11.546875 C 8.15625 -9.566406 8.722656 -8.003906 9.859375 -6.859375 C 11.003906 -5.722656 12.453125 -5.15625 14.203125 -5.15625 C 16.492188 -5.15625 18.222656 -6.210938 19.390625 -8.328125 L 24.578125 -5.484375 C 23.753906 -3.660156 22.429688 -2.234375 20.609375 -1.203125 C 18.796875 -0.171875 16.675781 0.34375 14.25 0.34375 Z M 14.25 0.34375 "/></g></g><g style="fill:#ffffff;fill-opacity:1;"><g transform="translate(293.439613, 89.820871)"><path style="stroke:none" d="M 10.859375 0.34375 C 8.941406 0.34375 7.066406 0.109375 5.234375 -0.359375 C 3.398438 -0.835938 1.941406 -1.429688 0.859375 -2.140625 L 3.09375 -6.953125 C 4.125 -6.296875 5.367188 -5.757812 6.828125 -5.34375 C 8.285156 -4.925781 9.710938 -4.71875 11.109375 -4.71875 C 13.941406 -4.71875 15.359375 -5.421875 15.359375 -6.828125 C 15.359375 -7.484375 14.972656 -7.953125 14.203125 -8.234375 C 13.429688 -8.523438 12.242188 -8.769531 10.640625 -8.96875 C 8.753906 -9.25 7.195312 -9.578125 5.96875 -9.953125 C 4.738281 -10.328125 3.671875 -10.984375 2.765625 -11.921875 C 1.867188 -12.867188 1.421875 -14.21875 1.421875 -15.96875 C 1.421875 -17.425781 1.84375 -18.71875 2.6875 -19.84375 C 3.53125 -20.96875 4.757812 -21.84375 6.375 -22.46875 C 7.988281 -23.101562 9.894531 -23.421875 12.09375 -23.421875 C 13.726562 -23.421875 15.351562 -23.242188 16.96875 -22.890625 C 18.582031 -22.535156 19.921875 -22.039062 20.984375 -21.40625 L 18.75 -16.640625 C 16.71875 -17.785156 14.5 -18.359375 12.09375 -18.359375 C 10.664062 -18.359375 9.59375 -18.15625 8.875 -17.75 C 8.164062 -17.351562 7.8125 -16.84375 7.8125 -16.21875 C 7.8125 -15.5 8.195312 -14.992188 8.96875 -14.703125 C 9.738281 -14.421875 10.96875 -14.15625 12.65625 -13.90625 C 14.539062 -13.582031 16.082031 -13.242188 17.28125 -12.890625 C 18.488281 -12.535156 19.535156 -11.882812 20.421875 -10.9375 C 21.304688 -10 21.75 -8.6875 21.75 -7 C 21.75 -5.5625 21.316406 -4.285156 20.453125 -3.171875 C 19.597656 -2.054688 18.347656 -1.191406 16.703125 -0.578125 C 15.066406 0.0351562 13.117188 0.34375 10.859375 0.34375 Z M 10.859375 0.34375 "/></g></g></g></svg>